<svg version="1.1" viewBox="0.0 0.0 944.8818897637796 944.8818897637796" fill="none" stroke="none" stroke-linecap="square" stroke-miterlimit="10" xmlns:xlink="http://www.w3.org/1999/xlink" xmlns="http://www.w3.org/2000/svg"><clipPath id="p.0"><path d="m0 0l944.8819 0l0 944.8819l-944.8819 0l0 -944.8819z" clip-rule="nonzero"/></clipPath><g clip-path="url(#p.0)"><path fill="#000000" fill-opacity="0.0" d="m0 0l944.8819 0l0 944.8819l-944.8819 0z" fill-rule="evenodd"/><path fill="#434343" d="m0 472.44095l0 0c0 -260.92194 211.51901 -472.44095 472.44095 -472.44095l0 0c125.2991 0 245.46634 49.774887 334.0662 138.37476c88.59985 88.59985 138.37476 208.76706 138.37476 334.0662l0 0c0 260.9219 -211.51904 472.44095 -472.44095 472.44095l0 0c-260.92194 0 -472.44095 -211.51904 -472.44095 -472.44095z" fill-rule="evenodd"/><defs><radialGradient id="p.1" gradientUnits="userSpaceOnUse" gradientTransform="matrix(25.326016489382464 0.0 0.0 25.326016489382464 0.0 0.0)" spreadMethod="pad" cx="18.6543724742481" cy="18.6543724742481" fx="18.6543724742481" fy="18.6543724742481" r="25.326017379760742"><stop offset="0.0" stop-color="#696969"/><stop offset="1.0" stop-color="#1d1d1d"/></radialGradient></defs><path fill="url(#p.1)" d="m18.897638 472.44095l0 0c0 -250.48506 203.05824 -453.5433 453.5433 -453.5433l0 0c120.28714 0 235.64767 47.78389 320.70352 132.83975c85.05591 85.05586 132.83978 200.41638 132.83978 320.70355l0 0c0 250.48508 -203.05823 453.5433 -453.5433 453.5433l0 0c-250.48506 0 -453.5433 -203.05823 -453.5433 -453.5433z" fill-rule="evenodd"/><path stroke="#efefef" stroke-width="12.0" stroke-linejoin="round" stroke-linecap="butt" d="m18.897638 472.44095l0 0c0 -250.48506 203.05824 -453.5433 453.5433 -453.5433l0 0c120.28714 0 235.64767 47.78389 320.70352 132.83975c85.05591 85.05586 132.83978 200.41638 132.83978 320.70355l0 0c0 250.48508 -203.05823 453.5433 -453.5433 453.5433l0 0c-250.48506 0 -453.5433 -203.05823 -453.5433 -453.5433z" fill-rule="evenodd"/><path fill="#f3f3f3" d="m651.2643 127.496056l-323.35144 77.2241l0 430.89398c-15.6128845 -7.9414673 -32.18448 -11.912231 -49.714752 -11.912231c-24.378052 0 -44.09961 7.256836 -59.164703 21.77063c-14.243347 13.966064 -21.36502 30.807495 -21.36502 50.52423c0 19.442993 8.217316 34.77826 24.651947 46.00586c11.230347 7.6676636 25.199783 11.501465 41.908325 11.501465c28.2128 0 52.179962 -9.858398 71.90152 -29.575195c6.0260315 -6.298401 11.093384 -13.144531 15.202057 -20.53833c9.586853 -18.07373 14.38028 -42.582764 14.38028 -73.52716l0 -345.0438l247.7521 -59.97191l0 346.68683c-17.804138 -7.6676025 -34.923584 -11.501465 -51.358215 -11.501465c-22.460632 0 -41.086548 6.5722656 -55.877747 19.716797c-16.160736 14.239929 -24.241089 32.039795 -24.241089 53.39966c0 19.716797 8.217316 34.91516 24.651947 45.59503c11.504242 7.6676636 25.336761 11.501465 41.497467 11.501465c32.32141 0 58.890747 -12.8706665 79.70795 -38.612c15.612915 -19.169128 23.419373 -47.512024 23.419373 -85.02869l0 -439.10928z" fill-rule="evenodd"/><path stroke="#f3f3f3" stroke-width="3.0" stroke-linejoin="round" stroke-linecap="butt" d="m651.2643 127.496056l-323.35144 77.2241l0 430.89398c-15.6128845 -7.9414673 -32.18448 -11.912231 -49.714752 -11.912231c-24.378052 0 -44.09961 7.256836 -59.164703 21.77063c-14.243347 13.966064 -21.36502 30.807495 -21.36502 50.52423c0 19.442993 8.217316 34.77826 24.651947 46.00586c11.230347 7.6676636 25.199783 11.501465 41.908325 11.501465c28.2128 0 52.179962 -9.858398 71.90152 -29.575195c6.0260315 -6.298401 11.093384 -13.144531 15.202057 -20.53833c9.586853 -18.07373 14.38028 -42.582764 14.38028 -73.52716l0 -345.0438l247.7521 -59.97191l0 346.68683c-17.804138 -7.6676025 -34.923584 -11.501465 -51.358215 -11.501465c-22.460632 0 -41.086548 6.5722656 -55.877747 19.716797c-16.160736 14.239929 -24.241089 32.039795 -24.241089 53.39966c0 19.716797 8.217316 34.91516 24.651947 45.59503c11.504242 7.6676636 25.336761 11.501465 41.497467 11.501465c32.32141 0 58.890747 -12.8706665 79.70795 -38.612c15.612915 -19.169128 23.419373 -47.512024 23.419373 -85.02869l0 -439.10928z" fill-rule="evenodd"/></g></svg>
